<?xml version="1.0" encoding="UTF-8" standalone="no"?>
<svg
   xmlns:dc="http://purl.org/dc/elements/1.1/"
   xmlns:cc="http://creativecommons.org/ns#"
   xmlns:rdf="http://www.w3.org/1999/02/22-rdf-syntax-ns#"
   xmlns:svg="http://www.w3.org/2000/svg"
   xmlns="http://www.w3.org/2000/svg"
   xmlns:sodipodi="http://sodipodi.sourceforge.net/DTD/sodipodi-0.dtd"
   xmlns:inkscape="http://www.inkscape.org/namespaces/inkscape"
   width="800"
   height="750"
   version="1.1"
   id="svg24"
   sodipodi:docname="map.svg"
   inkscape:version="1.0.2-2 (e86c870879, 2021-01-15)">
  <metadata
     id="metadata30">
    <rdf:RDF>
      <cc:Work
         rdf:about="">
        <dc:format>image/svg+xml</dc:format>
        <dc:type
           rdf:resource="http://purl.org/dc/dcmitype/StillImage" />
      </cc:Work>
    </rdf:RDF>
  </metadata>
  <defs
     id="defs28" />
  <sodipodi:namedview
     pagecolor="#ffffff"
     bordercolor="#666666"
     borderopacity="1"
     objecttolerance="10"
     gridtolerance="10"
     guidetolerance="10"
     inkscape:pageopacity="0"
     inkscape:pageshadow="2"
     inkscape:window-width="1920"
     inkscape:window-height="1017"
     id="namedview26"
     showgrid="false"
     inkscape:zoom="0.80138769"
     inkscape:cx="365.98069"
     inkscape:cy="408.11351"
     inkscape:window-x="-8"
     inkscape:window-y="-8"
     inkscape:window-maximized="1"
     inkscape:current-layer="svg24" />
  <!-- Created with SVG Editor - http://github.com/mzalive/SVG Editor/ -->
  <g
     id="g5">
    <title
       id="title2">background</title>
    <rect
       fill="none"
       id="canvas_background"
       height="752"
       width="802"
       y="-1"
       x="-1" />
  </g>
  <g
     id="g22">
    <title
       id="title7">Layer 1</title>
    <!-- Created with SVG Editor - http://github.com/mzalive/SVG Editor/ -->
    <!-- Created with SVG Editor - http://github.com/mzalive/SVG Editor/ -->
    <g
       id="svg_34">
      <g
         transform="matrix(1.49555, 0, 0, 1.49555, -1965.48, -1520.42)"
         id="svg_31">
        <title
           id="title9">background</title>
        <rect
           x="1290.678089"
           y="1111.283149"
           width="582"
           height="402"
           id="svg_29"
           fill="none" />
        <g
           id="svg_28"
           display="none">
          <rect
             id="svg_32"
             width="800"
             height="600"
             x="1291.678089"
             y="1112.283149"
             stroke-width="0"
             fill="url(#gridpattern)" />
        </g>
      </g>
      <g
         transform="matrix(1.49555, 0, 0, 1.49555, -1965.48, -1520.42)"
         id="svg_33">
        <title
           id="title15">Layer 1</title>
        <g
           id="svg_25">
          <g
             transform="matrix(0.220369, 0, 0, -0.220369, -826.101, -178.819)"
             fill="#000000"
             id="svg_26">
            <path
               d="m11093.668945,-5928.256836c-12,-12 -22,-35 -22,-50c0,-28 -3,-29 -75,-29c-16,-1 -51,2 -78,6c-43,5 -51,3 -92,-27c-25,-19 -47,-43 -49,-54c-2,-11 -9,-44 -15,-73c-6,-30 -11,-63 -11,-74c0,-32 -47,-87 -83,-96c-23,-6 -38,-5 -54,5c-18,12 -44,13 -155,4c-73,-6 -144,-14 -158,-17c-20,-4 -27,0 -35,18c-18,42 -62,36 -146,-22c-42,-29 -89,-53 -111,-57c-52,-8 -68,-33 -68,-110c0,-47 6,-73 24,-105c24,-44 41,-168 23,-168c-4,0 -23,-11 -40,-24c-18,-13 -51,-29 -73,-35c-33,-9 -45,-19 -58,-45c-32,-68 -24,-87 67,-160c83,-67 114,-78 141,-51c21,22 64,36 71,25c4,-6 26,-10 49,-10c40,0 44,-2 49,-30c6,-29 -14,-95 -31,-102c-5,-1 -12,-26 -16,-54c-7,-59 0,-71 79,-124c70,-47 140,-53 193,-16c23,16 51,26 73,26c30,0 38,-6 63,-48c40,-65 122,-125 160,-118c24,5 28,3 24,-12c-8,-30 49,-62 123,-68c82,-8 165,15 204,56c31,33 57,42 158,60c85,15 112,43 101,103c-5,34 -2,43 24,70c22,23 31,45 35,77c5,56 31,148 45,162c7,7 17,0 33,-21c16,-22 31,-31 51,-31c25,0 28,-3 28,-35c0,-35 0,-35 45,-35c45,0 45,0 45,-34c0,-40 28,-66 72,-66c22,0 35,10 61,46c46,66 56,76 110,109c53,34 65,57 46,91c-10,19 -21,24 -51,24c-22,0 -46,-7 -55,-15c-21,-22 -37,-14 -41,19c-4,32 25,68 72,93c39,20 119,101 134,136c7,15 12,39 12,53c0,19 7,28 30,35c27,10 30,15 30,54c0,28 -7,51 -21,70c-13,15 -23,44 -24,66c-1,21 -7,45 -14,53c-16,19 -97,28 -143,16c-31,-9 -43,-8 -60,5c-13,8 -32,15 -43,15c-18,0 -20,5 -17,54c3,43 -2,66 -26,117c-16,35 -33,89 -36,120c-5,39 -14,63 -29,77c-35,32 -119,70 -214,97c-48,14 -110,34 -136,46c-26,11 -76,22 -111,26c-57,5 -65,3 -84,-18zm150,-35c40,-14 118,-39 173,-56c116,-35 190,-70 204,-97c6,-10 14,-45 17,-77c4,-33 17,-77 30,-100c26,-45 33,-121 12,-142c-23,-23 -68,-12 -137,34c-38,25 -72,52 -75,59c-3,8 -22,17 -43,21c-23,4 -50,18 -69,38c-38,38 -94,85 -154,129c-45,32 -100,120 -100,159c0,21 34,58 54,58c8,0 47,-12 88,-26zm-285,-90c34,-13 49,-15 68,-6c14,7 25,8 25,3c0,-17 106,-119 167,-160c108,-72 111,-108 16,-179c-23,-17 -35,-38 -44,-73l-13,-49l-56,0c-37,0 -68,-7 -94,-21c-33,-17 -43,-19 -67,-9c-41,18 -192,9 -215,-11c-33,-29 -61,-32 -74,-9c-9,17 -8,25 4,39c21,23 20,45 -4,109l-20,52l27,0c34,0 98,67 112,117c6,21 14,67 17,101c5,45 12,66 23,70c9,3 25,14 35,24c24,22 39,22 93,2zm-713,-301c23,-27 23,-27 92,-15c38,6 110,14 160,18c88,6 92,5 108,-17c9,-13 16,-30 16,-37c0,-8 7,-29 16,-48c14,-30 14,-35 0,-56c-20,-28 -21,-72 -1,-88c8,-7 15,-26 15,-42c0,-19 11,-43 30,-65c35,-39 32,-50 -26,-116c-20,-21 -34,-48 -34,-62c0,-23 -3,-25 -50,-25c-28,0 -66,-7 -86,-15c-25,-10 -42,-12 -60,-5c-14,6 -39,10 -56,10c-20,0 -39,9 -58,30c-24,26 -35,30 -79,30c-51,0 -78,10 -115,43c-11,9 -29,17 -41,17c-26,0 -45,47 -45,109c0,25 -10,62 -25,91c-28,54 -35,148 -12,154c61,18 116,44 159,77c29,21 56,39 61,39c4,0 18,-12 31,-27zm1171,-23c8,0 24,-11 37,-24c34,-37 162,-106 213,-115c33,-6 50,-5 65,6c17,12 27,13 50,3c23,-10 40,-9 80,1c34,9 59,10 78,3c23,-8 27,-15 28,-52c0,-29 7,-49 23,-66c27,-29 25,-69 -3,-74c-32,-7 -46,-28 -46,-71c0,-39 -25,-81 -48,-81c-5,0 -14,-10 -21,-23c-7,-13 -28,-31 -46,-41c-56,-30 -97,-83 -102,-130c-4,-38 -2,-43 29,-63c42,-28 58,-29 86,-3c12,11 26,20 32,20c23,0 3,-24 -36,-45c-52,-28 -124,-101 -124,-125c0,-13 -7,-20 -20,-20c-16,0 -20,7 -20,36c0,42 -21,63 -63,64c-32,0 -28,16 9,30c28,11 42,54 23,76c-14,18 -44,13 -100,-16l-36,-18l-17,29c-17,29 -32,34 -73,23c-22,-6 -35,-30 -53,-101c-6,-24 -17,-43 -24,-43c-7,0 -27,-18 -45,-40c-32,-40 -61,-52 -61,-26c0,19 42,77 65,90c28,15 35,27 35,59c0,22 -9,33 -44,54c-25,15 -50,36 -56,48c-25,44 -65,64 -139,71l-72,7l-42,-45c-58,-62 -92,-77 -179,-80c-118,-3 -139,19 -129,135c6,62 9,69 44,98c31,26 37,37 37,69c0,28 -7,47 -25,66c-30,32 -31,46 -6,59c116,62 106,60 262,39c33,-4 55,-1 78,10c17,9 52,19 78,22c58,8 93,37 93,75c0,21 7,32 30,44c16,8 35,15 43,15c7,0 26,14 41,31c17,19 33,28 43,25c8,-3 21,-6 28,-6zm-1294,-504c32,-37 73,-48 96,-25c16,16 59,0 73,-26c16,-30 6,-44 -57,-80c-49,-27 -88,-31 -127,-14c-20,10 -34,8 -71,-5l-45,-18l-53,35c-28,19 -60,44 -70,54c-17,19 -16,21 4,47c34,43 115,77 172,73c40,-4 52,-10 78,-41zm483,-72c10,-4 16,-18 16,-40c0,-34 0,-34 -47,-34c-34,0 -62,-9 -109,-35c-34,-19 -68,-35 -76,-35c-7,0 -30,-9 -50,-20c-43,-22 -94,-18 -101,9c-6,26 10,61 30,61c10,0 33,21 52,46c31,41 38,45 65,39c83,-17 96,-17 111,-1c16,16 79,22 109,10zm555,-45c10,-7 26,-25 37,-41c10,-16 36,-38 57,-49c20,-11 37,-21 37,-23c0,-2 -22,-25 -49,-52l-49,-49l-6,34c-7,44 -38,87 -99,136c-73,58 -73,70 -3,61c31,-3 65,-11 75,-17zm-57,-109c15,0 47,-78 54,-129c10,-77 66,-103 137,-66c21,10 27,11 25,2c-3,-6 -14,-16 -26,-22c-19,-8 -21,-16 -17,-46c11,-74 -28,-109 -123,-109c-41,0 -87,-23 -130,-64c-31,-29 -38,-31 -124,-35c-98,-3 -108,1 -108,50c0,14 -5,30 -12,37c-14,14 -78,16 -78,2c0,-21 -22,-8 -75,47c-30,31 -55,60 -55,63c0,3 14,19 30,35c17,16 30,36 30,46c0,9 9,46 20,82c17,55 25,67 50,76c17,5 30,15 30,20c0,7 33,11 89,11l88,0l44,43l44,43l50,-43c27,-24 53,-43 57,-43zm-434,28c17,-17 15,-23 -12,-36c-18,-8 -29,-28 -47,-88c-12,-42 -34,-90 -47,-105c-21,-25 -31,-29 -77,-29c-42,0 -60,-5 -83,-25c-42,-35 -86,-33 -151,9c-29,19 -55,37 -59,40c-13,14 -1,82 18,98c11,9 20,23 20,31c0,12 12,14 64,10c54,-5 66,-3 84,15c11,11 36,25 56,32c20,6 39,16 42,22c20,32 166,52 192,26z"
               id="svg_27" />
          </g>
        </g>
      </g>
    </g>
  </g>
  <path
     style="fill:#212121;stroke:none;stroke-width:1.24784;fill-opacity:1"
     d="M 379.05982,723.72895 C 355.60341,721.68909 339.81355,713.1445 338.9244,702.00992 l -0.39609,-4.9602 -8.11093,-0.0312 c -9.90775,-0.0381 -16.43454,-2.97051 -29.21365,-13.1256 -9.00718,-7.15766 -17.40728,-16.92194 -26.12128,-30.36331 -8.86512,-13.67449 -18.87191,-14.30544 -41.37232,-2.60856 -12.05362,6.26609 -14.81268,7.20767 -22.64264,7.72719 -14.68838,0.9746 -27.05146,-3.15306 -44.33537,-14.80223 -13.1794,-8.88277 -18.24378,-13.55107 -21.09876,-19.44868 -2.30694,-4.7655 -2.60776,-6.92667 -1.9497,-14.0071 1.0318,-11.10186 3.58015,-19.20415 7.50847,-23.87269 7.27957,-8.65127 10.93318,-32.58766 5.91927,-38.7796 -2.05309,-2.53545 -3.87261,-3.0164 -14.29476,-3.77849 -7.87868,-0.57612 -13.21939,-1.62771 -15.69565,-3.09047 -3.54701,-2.09526 -4.11622,-2.1025 -10.35,-0.13162 -3.62812,1.14706 -9.32496,4.34445 -12.65966,7.1053 -7.810978,6.46682 -13.174493,6.72119 -23.160152,1.09837 -13.782938,-7.76098 -40.061662,-29.42916 -46.445923,-38.29704 -5.746272,-7.98172 -5.751602,-16.03598 -0.0185,-27.9489 4.612344,-9.58407 8.935541,-13.37299 18.911143,-16.57405 8.713644,-2.7961 19.845957,-8.35509 27.975479,-13.96976 3.486999,-2.40829 7.533331,-4.83856 8.99185,-5.4006 3.692803,-1.42301 4.569315,-7.56952 2.964256,-20.78675 -1.720442,-14.16733 -5.29775,-27.27522 -10.733972,-39.33115 -5.794364,-12.85017 -7.732213,-26.88223 -5.754152,-41.6661 2.216388,-16.56509 5.938825,-20.99291 20.931623,-24.89803 10.103718,-2.63169 20.155628,-7.66845 36.110308,-18.09396 29.22487,-19.09685 40.86266,-21.16859 47.96143,-8.53804 4.04205,7.19188 5.48833,7.58882 20.24744,5.55703 20.25519,-2.7884 58.9187,-5.97058 74.6683,-6.14554 12.67457,-0.1408 14.96351,0.16841 19.60369,2.64822 10.93888,5.84597 24.76992,2.21845 35.49724,-9.30999 7.63396,-8.20406 10.51201,-14.20075 11.55199,-24.06961 0.47008,-4.46101 2.53551,-16.53382 4.58982,-26.82847 2.81539,-14.1086 4.54449,-19.8881 7.02216,-23.47139 4.1621,-6.0194 15.21902,-14.90607 23.87482,-19.18867 6.62717,-3.27891 6.78104,-3.29355 19.34145,-1.84064 17.75736,2.05406 44.60071,1.92646 47.54438,-0.22601 1.50483,-1.10036 2.63232,-4.17982 3.28127,-8.96192 1.17508,-8.65916 6.0258,-16.3669 12.40464,-19.7108 8.78385,-4.60465 36.22858,-0.46438 63.3177,9.55201 8.39792,3.1052 23.83113,8.2575 34.29602,11.44956 24.38801,7.43898 39.95066,13.26263 53.79578,20.13077 21.19304,10.51323 26.77094,16.48608 29.55076,31.64318 3.38003,18.42975 7.5323,32.92502 13.44502,46.93552 7.52223,17.82436 9.28755,26.40334 8.2091,39.89381 -1.03211,12.91058 -0.0438,14.84831 8.50874,16.6825 3.59466,0.77091 9.00353,2.84789 12.01971,4.61548 5.92859,3.47439 7.67917,3.50474 27.22988,0.4721 10.24341,-1.58893 25.6085,-0.17096 33.84099,3.12303 5.89028,2.35682 8.21506,6.86296 9.64696,18.69875 1.17297,9.69547 3.82201,17.4819 8.05842,23.68649 4.77169,6.98854 6.63149,13.51927 6.63149,23.28672 0,10.11931 -2.07213,13.92499 -8.74571,16.06244 -7.61053,2.43754 -9.92277,5.36857 -10.87503,13.78539 -0.463,4.09235 -1.66723,9.78013 -2.67608,12.63953 -4.24468,12.0307 -26.0102,34.93865 -45.14727,47.51697 -21.2977,13.99845 -27.62962,24.75858 -22.20684,37.73713 2.21316,5.29683 5.83208,5.69787 11.78495,1.30601 8.76971,-6.47009 26.06344,-7.50294 32.01468,-1.91204 3.69762,3.47374 6.18819,10.96977 5.09365,15.33076 -1.31263,5.22986 -6.64423,10.4113 -19.29898,18.7554 -13.35804,8.80783 -21.83482,17.2798 -33.72845,33.70938 -9.97414,13.778 -13.34706,16.04443 -22.95936,15.42748 -12.26497,-0.78722 -18.34205,-7.25243 -19.82016,-21.08605 -0.5338,-4.99574 -1.66889,-9.39996 -2.56999,-9.9716 -0.88765,-0.56313 -6.28342,-1.03248 -11.99059,-1.04298 -14.21025,-0.0262 -15.20396,-0.70792 -15.20396,-10.43111 0,-10.18956 -1.40594,-11.94709 -10.54978,-13.18794 -7.01019,-0.9513 -7.73822,-1.39871 -15.26098,-9.37848 -4.98897,-5.29206 -8.69459,-8.22642 -10.05723,-7.964 -5.13058,0.98807 -12.0106,21.28659 -16.41573,48.43217 -2.84888,17.55562 -4.25188,21.03794 -12.44008,30.87708 -3.54201,4.25615 -6.97101,9.13506 -7.61999,10.84204 -0.64899,1.70696 -0.87947,8.60019 -0.51218,15.31829 0.58995,10.79075 0.37511,12.67604 -1.84281,16.17176 -5.00709,7.8918 -12.23803,10.65537 -47.9509,18.32626 -18.22397,3.91439 -25.57594,7.25184 -35.39018,16.06542 -9.23732,8.29551 -17.67337,12.60052 -31.00721,15.82332 -11.83764,2.86115 -22.75447,3.63346 -35.58646,2.51754 z m 24.52125,-14.82937 c 16.54462,-1.36905 19.96275,-2.67177 29.78274,-11.35074 10.23798,-9.0484 21.10977,-15.88784 28.64184,-18.01858 3.46366,-0.97984 12.24401,-2.31185 19.51189,-2.96005 27.06845,-2.41415 35.35715,-10.16784 34.7859,-32.54056 -0.15,-5.87501 -0.20205,-11.64725 -0.11567,-12.8272 0.0864,-1.17995 3.24548,-4.12099 7.02018,-6.53564 4.59094,-2.93678 6.8631,-5.22164 6.8631,-6.90144 0,-3.25206 -0.61576,-3.19049 -10.7879,1.07873 -11.01145,4.62147 -16.66323,5.57749 -22.95589,3.88305 -8.15335,-2.19546 -14.48027,-8.86378 -17.41013,-18.34956 -1.37664,-4.45709 -2.503,-9.23697 -2.503,-10.62196 0,-3.77167 -8.4481,-28.28023 -11.38775,-33.03669 -1.41001,-2.28143 -5.18022,-5.92787 -8.37826,-8.10318 -3.19804,-2.17532 -11.93137,-9.17247 -19.40739,-15.54922 l -13.59277,-11.59408 -6.99651,6.11248 c -3.84809,3.36185 -10.63021,9.80536 -15.0714,14.3189 l -8.07488,8.20642 -23.121,0.0543 c -25.08497,0.059 -33.47912,1.0597 -35.23703,4.2009 -0.62358,1.1143 -4.76704,3.67338 -9.20769,5.68687 -7.64447,3.46617 -8.2687,4.07896 -11.73649,11.52145 -3.10948,6.6735 -6.32799,17.48642 -12.61392,42.37788 -0.73616,2.91506 -4.30994,8.04391 -9.87165,14.1671 -4.79476,5.27882 -8.71776,10.38049 -8.71776,11.33706 0,2.79658 22.86658,27.72077 32.44373,35.36314 6.70551,5.35086 9.72787,5.89882 11.19866,2.03034 1.14328,-3.00704 1.73601,-3.20224 9.6717,-3.18497 4.64957,0.01 9.85758,0.71984 11.57336,1.57715 4.38382,2.19046 7.48278,9.09288 7.48508,16.67179 0.002,7.69204 2.54796,11.43808 8.7668,12.90076 6.01607,1.415 22.93245,1.45167 39.44211,0.0855 z M 219.96751,644.27169 c 2.06796,-1.06526 6.90623,-4.15167 10.7517,-6.8587 6.86879,-4.8353 7.26383,-4.94295 22.46103,-6.12071 8.50811,-0.65937 17.01606,-1.79924 18.90657,-2.53305 7.96345,-3.09107 16.9014,-18.59209 24.69547,-42.82916 6.47859,-20.14641 9.59751,-25.33409 17.7252,-29.48227 9.69327,-4.94723 3.51635,-13.95526 -10.58106,-15.4307 -16.06656,-1.68155 -42.31899,3.82595 -49.96008,10.48111 -4.66266,4.06105 -9.26949,6.55555 -18.59478,10.06867 -3.65903,1.37846 -9.55056,4.71022 -13.09229,7.40388 -10.60319,8.06429 -10.29547,7.99044 -29.23451,7.01466 -18.57667,-0.95712 -22.35032,-0.45424 -22.35032,2.97842 0,1.22339 -1.82496,4.63721 -4.05547,7.58624 -2.2305,2.94904 -4.77006,6.31839 -5.64345,7.48746 -2.38019,3.186 -5.46096,19.58093 -4.57094,24.32516 0.6698,3.57032 2.48934,5.29333 12.93264,12.24653 6.68426,4.45039 14.63294,9.37253 17.66376,10.93806 11.79903,6.09465 24.38375,7.1353 32.94653,2.7244 z m 291.48597,-36.60222 c 1.77074,-1.24627 6.94819,-6.43208 11.50543,-11.52398 4.55723,-5.09192 9.94773,-9.9464 11.9789,-10.78773 4.44836,-1.84257 6.45053,-5.80142 11.45686,-22.65337 2.0809,-7.00457 4.57369,-14.26373 5.53954,-16.13148 2.9324,-5.67064 8.68866,-9.60957 15.39009,-10.53125 8.48064,-1.16639 12.5892,1.22104 18.31113,10.64034 2.5354,4.17371 5.24914,7.31779 6.03056,6.98685 0.78142,-0.33093 7.31679,-3.27816 14.52304,-6.54939 8.29544,-3.76565 15.43263,-6.1428 19.45428,-6.47954 5.74899,-0.48137 6.60785,-0.20662 9.0468,2.89401 5.91755,7.52294 1.89737,18.54817 -8.85962,24.29726 -11.25218,6.01373 -11.27108,9.20083 -0.0621,10.46898 13.10795,1.483 19.10354,7.75583 19.10354,19.98694 0,7.56615 1.80305,11.75436 5.4549,12.67092 4.53839,1.13906 8.02452,-1.38381 9.50393,-6.87791 2.43044,-9.02598 20.75644,-28.38768 35.48599,-37.4915 10.55909,-6.52619 17.0894,-11.52459 19.13571,-14.64673 1.62946,-2.48613 1.60902,-2.87715 -0.18643,-3.56613 -3.35137,-1.28603 -7.62792,0.45353 -13.94193,5.67111 -3.29966,2.72669 -7.54183,5.29639 -9.42702,5.71045 -4.22435,0.92783 -15.10119,-4.12813 -22.49382,-10.45594 l -5.11308,-4.37661 0.57339,-8.82148 c 1.10144,-16.94573 11.08193,-30.92537 32.09977,-44.96208 8.29415,-5.53921 13.83851,-10.27945 16.72881,-14.30254 2.38985,-3.3265 6.45807,-7.06459 9.09734,-8.35911 7.5792,-3.71748 11.56808,-11.50475 13.51182,-26.37842 0.90828,-6.95023 2.54377,-13.82881 3.7119,-15.61159 1.97184,-3.00936 8.80303,-7.14552 11.8014,-7.14552 3.46467,0 6.36255,-5.05299 6.36255,-11.09427 0,-5.00074 -0.79314,-7.19798 -4.39169,-12.16639 -6.5646,-9.06353 -8.29408,-13.7574 -9.03114,-24.51094 -0.78057,-11.38826 -2.75481,-14.712 -10.03408,-16.89293 -6.8269,-2.04538 -12.8916,-1.79881 -25.20867,1.02492 -12.82556,2.9403 -19.82375,3.10971 -25.7731,0.62392 -6.32914,-2.64449 -12.50644,-2.3247 -17.75386,0.9191 -5.5394,3.42428 -14.785,3.57795 -25.72791,0.42761 -17.65301,-5.08208 -49.2584,-22.95139 -66.93462,-37.84402 -5.75747,-4.8508 -8.46478,-6.20117 -14.87495,-7.41936 -9.37817,-1.78226 -10.09578,-1.48965 -20.81608,8.48798 -5.35343,4.98256 -9.6469,7.80287 -13.72619,9.01651 -8.20101,2.43992 -17.14309,6.78278 -19.63459,9.53585 -1.14643,1.26679 -2.49751,5.34746 -3.00242,9.06817 -0.50491,3.72071 -2.03325,8.68424 -3.39628,11.03004 -3.45491,5.94594 -13.73483,11.78744 -23.91864,13.59164 -11.26644,1.99599 -20.49996,4.55245 -30.05457,8.32115 -9.60182,3.78731 -16.94581,3.9812 -39.40058,1.04022 -9.55074,-1.25089 -21.09975,-1.91467 -28.28896,-1.62593 l -12.14912,0.48798 -17.0968,8.65826 c -9.40324,4.76204 -17.91737,9.91061 -18.9203,11.44125 -2.41181,3.68091 -1.34359,6.60254 5.47471,14.97356 7.15389,8.78306 9.13062,13.59943 9.13062,22.24713 0,9.86471 -2.1824,13.9569 -12.16164,22.80417 -5.54934,4.91986 -9.51339,9.59927 -10.75007,12.69004 -2.59537,6.48645 -5.00318,31.22365 -3.94892,40.57012 2.33162,20.6709 10.77685,25.25286 44.33033,24.05148 29.6663,-1.06219 37.96202,-4.8328 59.68972,-27.13039 l 13.31496,-13.66419 16.84263,1.84578 c 28.46347,3.11932 40.4504,8.2802 49.39431,21.26636 5.02242,7.29235 10.74936,12.4099 21.414,19.13542 9.84117,6.2062 12.79351,10.30402 12.79351,17.75721 0,8.1881 -2.55172,12.76485 -9.33249,16.73864 -5.79753,3.39757 -12.86894,11.1011 -18.60012,20.26279 -8.12991,12.9962 -4.15227,20.37859 6.81936,12.65656 z m -5.83715,-34.81435 c 8.74552,-8.907 15.56436,-16.73912 15.153,-17.40473 -0.41136,-0.6656 -5.3019,-3.90667 -10.86787,-7.20237 -6.59802,-3.90681 -12.34042,-8.56135 -16.50033,-13.37445 -14.91934,-17.262 -15.49249,-17.69972 -26.34576,-20.12135 -5.49048,-1.22505 -14.75566,-2.27621 -20.58929,-2.33591 -9.91106,-0.10145 -10.63146,0.0658 -10.98563,2.54862 -0.28137,1.9726 2.10063,4.86583 9.24619,11.23052 33.55091,29.88447 37.26662,35.10911 42.2607,59.42266 0.38768,1.88735 1.16008,3.43155 1.71645,3.43155 0.55637,0 8.16701,-7.28755 16.91254,-16.19454 z M 203.76208,559.54903 c 4.11786,-1.78026 12.6075,-5.06604 18.86589,-7.30172 6.25838,-2.23569 17.24651,-7.21224 24.41807,-11.05902 17.74533,-9.51849 22.05164,-10.90634 37.05524,-11.94232 15.92844,-1.09984 16.8743,-1.90762 15.98549,-13.65191 -0.93069,-12.2978 -2.43518,-13.26897 -20.55582,-13.26897 -12.98846,0 -15.11363,0.31127 -18.99236,2.78182 -9.60245,6.11628 -8.87125,6.04025 -27.91559,2.90267 -21.45298,-3.53442 -20.71274,-3.78893 -33.13604,11.39249 -6.97439,8.52279 -10.3234,11.52592 -15.67849,14.05929 -8.80926,4.16744 -12.76556,11.46634 -11.08137,20.44382 1.72905,9.21666 16.54055,11.9102 31.03498,5.64385 z m -98.4942,-28.52372 c 13.30177,-4.9821 17.13824,-5.25061 26.74366,-1.87176 3.7747,1.32781 9.95149,2.41803 13.72619,2.42273 12.0966,0.015 30.05062,-7.78735 42.68095,-18.54804 4.8117,-4.09945 4.98953,-4.5143 4.4302,-10.33536 -0.67959,-7.07267 -4.03336,-11.38695 -11.54784,-14.85511 -6.64344,-3.06614 -10.24084,-2.89014 -16.22186,0.79369 -2.74524,1.69083 -6.42529,3.07712 -8.17789,3.08064 -5.65619,0.0112 -15.87449,-6.13044 -21.86451,-13.14183 -8.23064,-9.63408 -14.5618,-12.36315 -28.60587,-12.33072 -21.79763,0.0503 -47.543869,12.41195 -56.697059,27.22213 -3.781341,6.11833 -3.228421,8.53741 3.352091,14.66573 8.935512,8.32149 35.604191,26.98461 38.822195,27.16833 0.934501,0.0533 6.946384,-1.86835 13.359743,-4.27043 z m 147.93877,-36.27582 c 8.65036,-3.10568 22.99434,-5.52667 32.74469,-5.52667 10.89263,0 14.51799,-1.97001 14.51799,-7.88903 0,-5.46619 4.0513,-12.549 14.07968,-24.61518 10.38695,-12.49764 13.80649,-18.83269 12.75345,-23.62716 -0.42524,-1.93605 -3.77984,-7.48879 -7.45471,-12.33944 -6.95758,-9.18368 -8.66514,-13.0873 -9.97599,-22.80581 -0.4575,-3.39173 -2.44235,-8.3061 -4.78041,-11.83592 -5.6046,-8.46141 -5.58732,-16.7631 0.0574,-27.54712 2.23051,-4.26132 4.05547,-8.55435 4.05547,-9.54006 0,-0.98572 -1.68322,-5.74772 -3.74049,-10.58223 -2.05727,-4.83451 -4.33806,-11.57637 -5.06842,-14.98192 -0.73035,-3.40553 -2.94635,-8.74388 -4.92444,-11.86299 -5.04794,-7.95979 -8.73493,-8.76911 -32.13473,-7.05383 -21.4408,1.57167 -46.03859,4.2917 -62.36821,6.8967 -6.34098,1.01156 -12.71275,1.83918 -14.15949,1.83918 -1.54875,0 -6.14895,-3.39684 -11.18686,-8.26053 -7.0042,-6.762 -9.09248,-8.12599 -11.51138,-7.5189 -1.62522,0.40791 -9.3719,5.26686 -17.21483,10.79766 -15.3737,10.84147 -31.5384,19.28363 -45.45576,23.7397 -4.804171,1.53819 -9.717524,3.90515 -10.918565,5.25991 -4.801084,5.41554 -1.66977,34.68828 5.138081,48.03276 4.895164,9.59533 7.935664,21.04519 8.971404,33.78441 0.57556,7.07919 1.95784,16.00625 3.07173,19.83789 2.22475,7.653 7.60175,14.08468 11.77501,14.08468 4.11893,0 10.89213,3.25332 16.72639,8.03406 9.46973,7.75973 17.69892,10.68915 32.20811,11.46541 16.81442,0.89962 19.96296,1.98807 28.5281,9.86226 9.36475,8.60927 10.32299,9.0527 22.59612,10.45631 5.73685,0.65609 11.83445,1.75654 13.55022,2.44545 4.72519,1.89723 14.01179,1.64357 20.12044,-0.54959 z m 84.07223,-117.83077 c 7.95805,-5.47528 14.11358,-7.14812 32.02578,-8.70346 16.47228,-1.43031 32.61112,-0.61692 40.19521,2.02579 7.70356,2.68436 14.29783,2.0765 23.20961,-2.13942 11.51393,-5.44695 21.11791,-7.36632 36.96452,-7.38743 l 13.84914,-0.0184 2.85662,-10.91856 c 4.96967,-18.99509 7.38188,-22.7498 22.24651,-34.62743 8.72821,-6.97432 14.76132,-15.08035 15.95344,-21.43486 0.5909,-3.14975 0.0251,-5.72371 -2.21506,-10.07676 -3.27308,-6.36022 -10.51259,-12.83104 -31.05834,-27.76057 -12.46762,-9.05958 -42.5448,-37.45352 -48.72133,-45.99469 l -3.03158,-4.19219 -4.80698,2.00848 c -6.92045,2.89155 -12.5574,2.50177 -25.09148,-1.73502 -6.4604,-2.18375 -13.67445,-3.74351 -17.31416,-3.74351 -5.46655,0 -7.09912,0.67209 -13.18015,5.42592 -3.81741,2.98426 -8.20419,6.0924 -9.74839,6.907 -4.79351,2.52867 -6.50881,6.75402 -8.46245,20.84578 -5.12245,36.94891 -8.1808,45.85414 -20.37598,59.33024 -9.84106,10.87472 -16.41154,14.80492 -24.75084,14.80492 -3.64033,0 -6.61879,0.50517 -6.61879,1.12261 0,0.61743 1.91392,6.09231 4.25316,12.1664 9.31049,24.17569 10.06456,31.71738 3.97025,39.70745 -4.34493,5.69649 -4.3518,12.13251 -0.0176,16.46672 2.72556,2.72556 4.02939,3.1226 8.57262,2.61051 3.25149,-0.36649 7.69284,-2.21025 11.29628,-4.68948 z m 308.91,-41.21665 c 4.39463,-2.35194 6.3682,-8.26288 6.29891,-18.86552 -0.0782,-11.97257 -1.33372,-17.05144 -7.77106,-31.43647 -5.0115,-11.19885 -8.25649,-23.35386 -11.04498,-41.3721 -2.03291,-13.13594 -4.31974,-18.51468 -9.57642,-22.52415 -7.67928,-5.85726 -25.49923,-13.87489 -46.60652,-20.96939 -46.8135,-15.73477 -98.83222,-32.00534 -102.32442,-32.00534 -4.20205,0 -12.67412,6.82797 -15.67682,12.63457 -4.02785,7.78901 -0.89726,19.229 9.77518,35.72097 7.71652,11.92424 14.376,19.0091 26.49283,28.18507 13.96312,10.57414 28.35287,22.63443 41.12977,34.47153 10.14239,9.39637 16.37812,13.66494 22.50984,15.40878 1.37262,0.39036 4.8865,1.32751 7.80862,2.08256 3.46186,0.8945 7.99747,3.76815 13.018,8.24788 12.68322,11.31702 31.41376,23.70673 43.43691,28.73225 7.33802,3.0672 18.40508,3.89703 22.53016,1.68936 z"
     id="path857" />
</svg>
